<svg width="706" height="706" viewBox="0 0 706 706" fill="none" xmlns="http://www.w3.org/2000/svg">
<g clip-path="url(#clip0_201_2)">
<circle cx="353" cy="353" r="343" fill="#1F1F20" stroke="#FFBB00" stroke-width="20"/>
<path d="M203.5 532V182H374.5C418.5 182 451.5 190.333 473.5 207C495.833 223.667 507 245.667 507 273C507 291.333 502.5 307.333 493.5 321C484.5 334.333 472.167 344.667 456.5 352C440.833 359.333 422.833 363 402.5 363L412 342.5C434 342.5 453.5 346.167 470.5 353.5C487.5 360.5 500.667 371 510 385C519.667 399 524.5 416.167 524.5 436.5C524.5 466.5 512.667 490 489 507C465.333 523.667 430.5 532 384.5 532H203.5ZM284 471H378.5C399.5 471 415.333 467.667 426 461C437 454 442.5 443 442.5 428C442.5 413.333 437 402.5 426 395.5C415.333 388.167 399.5 384.5 378.5 384.5H278V325.5H364.5C384.167 325.5 399.167 322.167 409.5 315.5C420.167 308.5 425.5 298 425.5 284C425.5 270.333 420.167 260.167 409.5 253.5C399.167 246.5 384.167 243 364.5 243H284V471Z" fill="#F8F8F8"/>
</g>
<defs>
<clipPath id="clip0_201_2">
<rect width="706" height="706" fill="white"/>
</clipPath>
</defs>
</svg>
