<svg width="706" height="706" viewBox="0 0 706 706" fill="none" xmlns="http://www.w3.org/2000/svg">
<g clip-path="url(#clip0_201_2)">
<circle cx="353" cy="353" r="347.5" fill="#1F1F20" stroke="#FFBB00" stroke-width="11"/>
<path d="M214.5 532V182H371.5C411.833 182 442.833 190.167 464.5 206.5C486.167 222.5 497 244.5 497 272.5C497 291.5 492.667 307.5 484 320.5C475.667 333.5 464.333 343.5 450 350.5C435.667 357.5 420.167 361 403.5 361L412.5 346C432.5 346 450.167 349.5 465.5 356.5C480.833 363.5 493 373.833 502 387.5C511 400.833 515.5 417.5 515.5 437.5C515.5 467.5 504.167 490.833 481.5 507.5C459.167 523.833 425.833 532 381.5 532H214.5ZM264.5 491.5H379.5C407.167 491.5 428.333 486.833 443 477.5C457.667 468.167 465 453.5 465 433.5C465 413.167 457.667 398.333 443 389C428.333 379.667 407.167 375 379.5 375H260V334.5H367C392.333 334.5 412 329.833 426 320.5C440 311.167 447 297.167 447 278.5C447 259.833 440 245.833 426 236.5C412 227.167 392.333 222.5 367 222.5H264.5V491.5Z" fill="#F8F8F8"/>
</g>
<defs>
<clipPath id="clip0_201_2">
<rect width="706" height="706" fill="white"/>
</clipPath>
</defs>
</svg>
